<?xml version="1.0" encoding="utf-8"?>
<svg xmlns="http://www.w3.org/2000/svg" viewBox="0 0 500 500">
  <rect style="stroke: rgb(0, 0, 0); fill: none; stroke-linecap: round; stroke-dasharray: 30; stroke-linejoin: round; stroke-width: 7px; paint-order: stroke; transform-box: fill-box; transform-origin: 50% 50%;" x="31.194" y="23.746" width="437.612" height="452.508"/>
  <g style="" transform="matrix(1.115984, 0, 0, 1.129704, 35.355282, 33.363018)">
    <path d="M 97.404 2.962 L 29.954 3.356 L 30.866 88.22 L 96.902 88.09 L 97.404 2.962 Z M 62.988 20.888 L 66.753 28.934 L 73.599 26.298 L 72.139 40.433 L 79.197 35.57 L 80.609 40.629 L 87.982 40.104 L 83.342 47.748 L 87.699 52.311 L 74.402 55.035 L 73.218 62.036 L 51.703 60.057 L 53.813 55.655 L 40.225 48.872 L 42.569 45.514 L 37.897 38.301 L 44.184 39.045 L 45.206 33.445 L 55.338 40.659 L 52.855 26.963 L 58.826 27.262 L 62.988 20.888 Z" fill="#fff"/>
    <path d="M 98.279 2.962 L 97.777 88.09 L 124.038 88.17 L 123.785 3.311 L 98.279 2.962 Z M 29.079 3.356 L 2.929 3.727 L 4.183 88.235 L 29.992 88.22 L 29.079 3.356 Z M 62.639 25.138 L 59.248 28.773 L 55.866 29.781 L 57.358 43.66 L 47.088 37.389 L 45.092 40.214 L 41.718 40.353 L 44.889 45.953 L 42.707 48.581 C 42.707 48.581 56.092 55.166 55.622 56.144 C 55.151 57.123 54.925 59.13 56.548 58.911 C 58.17 58.692 64.262 58.924 64.262 58.924 L 71.855 59.977 L 73.616 53.808 L 83.286 50.639 L 81.266 48.763 L 84.547 42.35 L 78.678 42.448 L 77.428 38.593 L 69.437 43.842 L 71.466 28.547 L 65.333 31.168 L 62.639 25.138 Z" fill="#e72627"/>
    <path d="M 4.183 89.985 C 3.27 89.523 2.189 89.29 1.791 86.846 C 1.198 83.218 1.581 58.9 1.338 41.028 C 1.261 35.338 0.849 25.522 0.425 19.214 C -0.452 6.214 -0.036 2.234 2.251 1.718 C 3.043 1.539 7.622 1.305 12.425 1.197 C 17.228 1.09 24.943 0.916 29.569 0.812 C 34.194 0.708 43.793 0.613 50.9 0.6 C 58.007 0.588 68.485 0.384 74.185 0.147 C 86.665 -0.372 119.659 0.578 123.224 1.559 C 125.084 2.071 125.981 2.757 126.545 4.1 C 127.112 5.452 127.164 13.48 126.739 34.452 C 126.422 50.135 126.202 71.086 126.251 77.462 C 126.321 86.749 126.166 89.207 125.471 89.826 C 124.53 90.662 112.141 91.3 104.378 90.911 C 100.867 91.136 97.905 91.297 94.164 91.038 C 70.435 91.534 57.44 91.202 29.802 90.35 C 24.151 90.176 5.358 90.579 4.183 89.985 L 4.183 89.985 Z M 28.241 86.47 L 28.116 81.236 C 27.502 55.537 27.42 37.842 27.835 20.509 L 28.203 5.106 L 23.276 5.244 C 20.566 5.319 15.076 5.403 11.076 5.429 L 3.805 5.477 L 3.732 7.159 C 3.688 8.083 4.038 12.203 4.5 16.314 C 4.963 20.425 5.483 27.285 5.656 31.558 C 6.301 47.409 7.106 79.556 6.939 82.725 C 6.846 84.527 6.974 86.237 7.224 86.525 C 7.475 86.814 9.7 86.97 12.168 86.872 C 17.718 86.666 22.677 86.578 28.241 86.47 L 28.241 86.47 Z M 82.15 86.811 C 89.272 86.56 95.173 86.308 95.265 86.251 C 95.358 86.194 95.342 82.532 95.23 78.114 C 94.808 61.413 95.041 28.479 95.695 15.586 L 96.246 4.698 L 87.362 4.69 C 82.476 4.685 75.854 4.811 72.647 4.968 C 69.44 5.125 59.841 5.202 51.314 5.137 C 42.789 5.073 34.696 5.133 33.332 5.272 L 30.852 5.523 L 31 9.504 C 31.082 11.695 31.061 18.425 30.956 24.461 C 30.712 38.201 30.808 67.28 31.13 77.133 C 31.264 81.226 31.461 85.788 31.441 86.273 C 48.607 86.923 58.372 87.667 82.148 86.811 L 82.15 86.811 Z M 61.366 70.141 C 61.366 69.52 61.091 67.613 61.182 65.836 L 61.348 62.604 L 55.072 62.504 C 49.384 62.414 48.779 62.292 48.618 61.201 C 48.518 60.524 49.25 59.233 50.293 58.252 L 52.146 56.507 L 50.309 55.974 C 49.299 55.681 46.425 54.478 43.925 53.301 C 38.922 50.946 37.86 49.377 39.894 47.35 C 41.046 46.201 41.031 46.082 39.503 44.307 C 38.629 43.291 37.516 41.582 37.031 40.509 C 35.792 37.774 36.809 36.843 40.31 37.508 L 43.029 38.024 L 43.113 35.209 C 43.191 32.583 43.321 32.385 45.02 32.278 C 46.352 32.195 47.753 32.926 50.213 34.99 L 53.581 37.817 L 51.92 32.417 C 50.048 26.33 49.963 25.147 51.327 24.129 C 52.078 23.569 52.822 23.709 54.757 24.77 L 57.231 26.126 L 59.189 22.496 C 60.266 20.5 61.608 18.717 62.169 18.534 C 63.59 18.071 65.94 20.703 66.303 23.164 C 66.98 27.756 66.916 27.704 69.462 25.691 C 74.878 21.408 77.726 25.903 74.779 34.078 C 74.162 35.791 73.648 37.298 73.637 37.428 C 73.629 37.558 74.833 36.675 76.317 35.466 C 77.803 34.257 79.249 33.28 79.531 33.295 C 80.674 33.354 81.506 35.071 81.398 37.15 C 81.297 39.129 81.433 39.316 82.757 39.004 C 86.322 38.161 88.488 38.149 89.376 38.967 C 90.731 40.214 90.493 41.11 87.876 44.597 L 85.529 47.724 L 87.295 49.599 C 90.809 53.331 88.827 55.281 80.717 56.071 C 77.876 56.348 75.465 56.629 75.358 56.695 C 75.251 56.761 75.709 57.859 76.375 59.134 C 78.575 63.343 76.199 64.83 69.587 63.383 L 65.884 62.573 L 65.461 64.523 C 65.229 65.595 64.912 67.483 64.756 68.719 C 64.537 70.455 64.158 70.995 63.094 71.091 C 62.281 71.164 61.366 70.808 61.366 70.141 L 61.366 70.141 Z M 64.262 58.049 C 64.857 57.845 66.547 58.07 68.016 58.548 C 69.487 59.026 70.879 59.247 71.109 59.039 C 71.34 58.83 71.496 57.696 71.456 56.517 C 71.356 53.622 72.598 52.683 77.514 51.938 C 82.202 51.227 83.382 50.615 81.453 49.892 C 79.744 49.251 79.807 48.701 81.928 45.695 L 83.671 43.225 L 80.767 43.472 C 78.052 43.703 77.826 43.603 77.292 41.949 L 76.722 40.179 L 73.483 42.637 C 71.702 43.988 69.716 45.066 69.069 45.033 C 68.008 44.978 67.957 44.58 68.549 40.968 C 68.911 38.765 69.457 35.389 69.764 33.465 L 70.32 29.968 L 68.584 30.982 C 67.629 31.539 66.274 31.966 65.573 31.93 C 64.144 31.856 62.408 29.498 62.498 27.751 C 62.583 26.103 61.609 26.291 60.667 28.105 C 60.222 28.961 59.115 29.808 58.205 29.987 C 57.295 30.166 56.536 30.587 56.519 30.922 C 56.506 31.256 57.124 34.134 57.9 37.317 C 58.677 40.499 59.11 43.56 58.862 44.117 C 58.095 45.845 55.637 45.093 51.479 41.858 C 49.283 40.15 47.281 38.742 47.031 38.729 C 46.781 38.715 46.395 39.277 46.173 39.977 C 45.931 40.738 45.227 41.22 44.42 41.179 C 42.696 41.09 42.709 41.365 44.557 44.067 C 45.976 46.14 46.004 46.365 44.96 47.306 C 44.343 47.863 43.941 48.415 44.065 48.534 C 44.191 48.652 46.283 49.648 48.713 50.747 C 56.959 54.475 57.337 54.747 56.827 56.607 C 56.377 58.246 56.421 58.273 59.775 58.345 C 61.647 58.386 63.667 58.252 64.262 58.049 L 64.262 58.049 Z M 114.45 86.487 L 121.413 86.42 L 121.258 81.507 C 121.061 75.327 121.801 34.441 122.433 18.189 L 122.909 5.936 L 111.032 5.324 L 99.154 4.712 L 98.725 9.349 C 97.942 17.834 98.246 79.258 99.102 84.669 C 99.312 86.002 99.703 86.154 103.41 86.345 C 105.652 86.46 110.621 86.524 114.45 86.487 L 114.45 86.487 Z" fill="#030303"/>
  </g>
  <path style="fill: rgb(216, 216, 216); stroke: rgb(0, 0, 0); stroke-width: 10; stroke-linecap: square;" d="M 254.376 132.099 L 252.631 372.574"/>
  <path style="fill: rgb(216, 216, 216); stroke: rgb(0, 0, 0); stroke-width: 10; stroke-linecap: square; transform-box: fill-box; transform-origin: 50% 50%;" d="M 254.06 94.203 L 252.948 410.47" transform="matrix(0, 1, -1, 0, -0.000005, 0.000002)"/>
  <ellipse style="paint-order: stroke; fill: none; stroke: rgb(186, 218, 85); stroke-width: 11; stroke-linecap: round;" cx="253.504" cy="252.337" rx="54.617" ry="54.617"/>
</svg>