<svg xmlns="http://www.w3.org/2000/svg" viewBox="0 0 64 64"><defs><style>.cls-1{fill:#00aaa8;}.cls-2{fill:#00bebd;}.cls-3{fill:#50d9d7;}.cls-4{fill:#93e6e5;}.cls-5{fill:#f3f3f3;}.cls-6{fill:#fff;}.cls-7{fill:#ffac00;}</style></defs><title>Layer</title><g id="Layer"><path class="cls-1" d="M31,30.56,12.2,41.19a2,2,0,0,0,.06,3.51l18.81,9.82a2,2,0,0,0,1.86,0L51.74,44.7a2,2,0,0,0,.06-3.51L33,30.56A2,2,0,0,0,31,30.56Z"/><path class="cls-2" d="M31,20.56,12.2,31.19a2,2,0,0,0,.06,3.51l18.81,9.82a2,2,0,0,0,1.86,0L51.74,34.7a2,2,0,0,0,.06-3.51L33,20.56A2,2,0,0,0,31,20.56Z"/><path class="cls-3" d="M31,10.56,12.2,21.19a2,2,0,0,0,.06,3.51l18.81,9.82a2,2,0,0,0,1.86,0L51.74,24.7a2,2,0,0,0,.06-3.51L33,10.56A2,2,0,0,0,31,10.56Z"/><circle class="cls-4" cx="24" cy="22" r="2"/><circle class="cls-5" cx="32" cy="22" r="2"/><circle class="cls-6" cx="40" cy="22" r="2"/><path class="cls-7" d="M63.71,14.29c-4.35-4.35-4.07-4.1-4.33-4.21a1,1,0,0,0-1.09.21l-4,4a1,1,0,0,0,1.42,1.42L58,13.41V54a1,1,0,0,0,2,0V13.41C62.46,15.88,62.45,16,63,16A1,1,0,0,0,63.71,14.29Z"/><path class="cls-7" d="M8.29,49.29,6,51.59V11a1,1,0,0,0-2,0V51.59l-2.29-2.3A1,1,0,0,0,.29,50.71c4.35,4.34,4.06,4.1,4.33,4.21a.92.92,0,0,0,.76,0c.26-.11,0,.14,4.33-4.21A1,1,0,0,0,8.29,49.29Z"/><rect class="cls-5" x="12" y="2" width="14" height="2"/><rect class="cls-5" x="39" y="60" width="14" height="2"/><rect class="cls-5" x="12" y="6" width="8" height="2"/><rect class="cls-5" x="45" y="56" width="8" height="2"/></g></svg>