<?xml version="1.0" encoding="UTF-8"?>
<!DOCTYPE svg PUBLIC "-//W3C//DTD SVG 1.1//EN" "http://www.w3.org/Graphics/SVG/1.1/DTD/svg11.dtd">
<!-- Creator: CorelDRAW -->
<svg xmlns="http://www.w3.org/2000/svg" xml:space="preserve" width="6.82666in" height="6.82666in" style="shape-rendering:geometricPrecision; text-rendering:geometricPrecision; image-rendering:optimizeQuality; fill-rule:evenodd; clip-rule:evenodd"
viewBox="0 0 6.82666 6.82666"
 xmlns:xlink="http://www.w3.org/1999/xlink">
 <defs>
  <style type="text/css">
   <![CDATA[
    .fil0 {fill:none}
    .fil1 {fill:#212121;fill-rule:nonzero}
    .fil2 {fill:#66BB6A;fill-rule:nonzero}
   ]]>
  </style>
 </defs>
 <g id="Layer_x0020_1">
  <metadata id="CorelCorpID_0Corel-Layer"/>
  <g id="_372406576">
   <rect id="_372407392" class="fil0" width="6.82666" height="6.82666"/>
   <rect id="_372406912" class="fil0" x="0.853331" y="0.853331" width="5.12" height="5.12"/>
  </g>
  <path class="fil1" d="M2.17116 1.25393l1.13574 1.13574 0.0754173 0.0754213 -0.0754173 0.0754134 -1.13574 1.13574 -0.0754173 0.0754173 -0.0754173 -0.0754173 -1.13574 -1.13574 -0.0754134 -0.0754134 0.0754134 -0.0754213 1.13574 -1.13574 0.0754173 -0.0754173 0.0754173 0.0754173zm0.909488 1.21116l-0.984906 -0.984909 -0.984906 0.984909 0.984906 0.984906 0.984906 -0.984906z"/>
  <path class="fil1" d="M4.08065 1.69302c0.456843,0.0465 0.873461,0.240106 1.19883,0.534657 0.400098,0.362205 0.66202,0.877004 0.690917,1.45851 0.0288819,0.581134 -0.180689,1.11916 -0.542866,1.51923 -0.362209,0.400094 -0.877,0.66202 -1.45851,0.690921 -0.476307,0.0236732 -0.93098,-0.114157 -1.30318,-0.371445 -0.372236,-0.257307 -0.661886,-0.634102 -0.808114,-1.08831l0.202504 -0.065c0.131445,0.408291 0.391827,0.747004 0.726445,0.978307 0.334646,0.231331 0.743665,0.355248 1.17234,0.333941 0.52278,-0.0259843 0.985504,-0.26137 1.31101,-0.620921 0.325524,-0.359579 0.513866,-0.843571 0.487866,-1.36672 -0.0259803,-0.52278 -0.261366,-0.985504 -0.620917,-1.311 -0.305378,-0.276457 -0.7005,-0.453941 -1.13313,-0.485248l-0.0650551 -0.0650551 0.141858 -0.141858z"/>
  <polygon class="fil2" points="4.51333,1.1095 3.78795,1.83488 4.51333,2.56025 4.36249,2.71109 3.5617,1.9103 3.48628,1.83488 3.5617,1.75946 4.36249,0.958669 "/>
 </g>
</svg>
