<?xml version="1.0" encoding="UTF-8"?>
<!DOCTYPE svg PUBLIC "-//W3C//DTD SVG 1.1//EN" "http://www.w3.org/Graphics/SVG/1.1/DTD/svg11.dtd">
<!-- Creator: CorelDRAW -->
<svg xmlns="http://www.w3.org/2000/svg" xml:space="preserve" width="6.82666in" height="6.82666in" style="shape-rendering:geometricPrecision; text-rendering:geometricPrecision; image-rendering:optimizeQuality; fill-rule:evenodd; clip-rule:evenodd"
viewBox="0 0 6.82666 6.82666"
 xmlns:xlink="http://www.w3.org/1999/xlink">
 <defs>
  <style type="text/css">
   <![CDATA[
    .fil0 {fill:none}
    .fil1 {fill:#212121;fill-rule:nonzero}
    .fil2 {fill:#66BB6A;fill-rule:nonzero}
   ]]>
  </style>
 </defs>
 <g id="Layer_x0020_1">
  <metadata id="CorelCorpID_0Corel-Layer"/>
  <g id="_372416152">
   <rect id="_372415816" class="fil0" width="6.82666" height="6.82666"/>
   <rect id="_372416104" class="fil0" x="0.853331" y="0.853331" width="5.12" height="5.12"/>
  </g>
  <path class="fil1" d="M1.12964 0.853327l4.56739 0c0.0760945,0 0.145197,0.0310512 0.195228,0.0810827 0.0500315,0.0500315 0.0810827,0.119134 0.0810827,0.195228l0 4.56739c0,0.0760945 -0.0310512,0.145197 -0.0810827,0.195228 -0.0500315,0.0500315 -0.119134,0.0810827 -0.195228,0.0810827l-4.56739 0c-0.0760945,0 -0.145197,-0.0310512 -0.195228,-0.0810827 -0.0500315,-0.0500315 -0.0810827,-0.119134 -0.0810827,-0.195228l0 -4.56739c0,-0.0760945 0.0310512,-0.145197 0.0810827,-0.195228 0.0500315,-0.0500315 0.119134,-0.0810827 0.195228,-0.0810827zm4.56739 0.213339l-4.56739 0c-0.0172087,0 -0.0329331,0.00711811 -0.0443937,0.0185787 -0.0114606,0.0114606 -0.0185787,0.027185 -0.0185787,0.0443937l0 4.56739c0,0.0172087 0.00711811,0.0329331 0.0185787,0.0443937 0.0114606,0.0114606 0.027185,0.0185787 0.0443937,0.0185787l4.56739 0c0.0172087,0 0.0329331,-0.00711811 0.0443937,-0.0185787 0.0114606,-0.0114606 0.0185787,-0.027185 0.0185787,-0.0443937l0 -4.56739c0,-0.0172087 -0.00711811,-0.0329331 -0.0185787,-0.0443937 -0.0114606,-0.0114606 -0.027185,-0.0185787 -0.0443937,-0.0185787z"/>
  <path class="fil2" d="M1.74567 1.17333l0 0.583862 0.969543 0 0 -0.583862 0.213339 0 0 0.583862 0.969551 0 0 -0.583862 0.213339 0 0 0.583862 0.969547 0 0 -0.583862 0.213339 0 0 0.583862 0.359 0 0 0.213339 -0.359 0 0 0.819642 0.359 0 0 0.213339 -0.359 0 0 0.819638 0.359 0 0 0.213339 -0.359 0 0 0.819638 0.359 0 0 0.213339 -0.359 0 0 0.583866 -0.213339 0 0 -0.583866 -0.969547 0 0 0.583866 -0.213339 0 0 -0.583866 -0.969551 0 0 0.583866 -0.213339 0 0 -0.583866 -0.969543 0 0 0.583866 -0.213339 0 0 -0.583866 -0.359004 0 0 -0.213339 0.359004 0 0 -0.819638 -0.359004 0 0 -0.213339 0.359004 0 0 -0.819638 -0.359004 0 0 -0.213339 0.359004 0 0 -0.819642 -0.359004 0 0 -0.213339 0.359004 0 0 -0.583862 0.213339 0zm0 0.797201l0 0.819642 0.969543 0 0 -0.819642 -0.969543 0zm1.18288 0l0 0.819642 0.969551 0 0 -0.819642 -0.969551 0zm1.18289 0l0 0.819642 0.969547 0 0 -0.819642 -0.969547 0zm-2.36577 1.03298l0 0.819638 0.969543 0 0 -0.819638 -0.969543 0zm1.18288 0l0 0.819638 0.969551 0 0 -0.819638 -0.969551 0zm1.18289 0l0 0.819638 0.969547 0 0 -0.819638 -0.969547 0zm-2.36577 1.03298l0 0.819638 0.969543 0 0 -0.819638 -0.969543 0zm1.18288 0l0 0.819638 0.969551 0 0 -0.819638 -0.969551 0zm1.18289 0l0 0.819638 0.969547 0 0 -0.819638 -0.969547 0z"/>
 </g>
</svg>
