<?xml version="1.0" encoding="utf-8"?>
<!-- Generator: Adobe Illustrator 22.1.0, SVG Export Plug-In . SVG Version: 6.00 Build 0)  -->
<svg version="1.1" id="Layer_1" xmlns="http://www.w3.org/2000/svg" xmlns:xlink="http://www.w3.org/1999/xlink" x="0px" y="0px"
	 viewBox="0 0 512 512" style="enable-background:new 0 0 512 512;" xml:space="preserve">
<style type="text/css">
	.st0{fill:#6770E6;}
	.st1{fill:#5861C7;}
	.st2{fill:#FFEFE4;}
	.st3{fill:#D476E2;}
	.st4{fill:#EA82FA;}
	.st5{fill:#B665C2;}
	.st6{fill:#69EBFC;}
	.st7{fill:#FF8354;}
	.st8{fill:#333399;}
	.st9{fill:#E0734A;}
	.st10{fill:#FFAC8C;}
	.st11{fill:#382F8B;}
	.st12{fill:#C7FCFE;}
	.st13{fill:#EDD4C2;}
	.st14{fill:#8F95E6;}
	.st15{fill:#A1F1FC;}
	.st16{fill:#FFF7F2;}
	.st17{opacity:0.8;fill:#A1F1FC;}
	.st18{fill:#4C54AD;}
	.st19{fill:#5FD4E3;}
	.st20{fill:#FFE4D1;}
	.st21{fill:#5ED4E3;}
	.st22{fill:#56C1CF;}
	.st23{fill:#9FA5FF;}
	.st24{fill:#C46541;}
	.st25{fill:#FFCAB5;}
	.st26{fill:#5A62C9;}
	.st27{fill:#BABEFF;}
</style>
<g>
	
		<rect id="XMLID_109_" x="24.005" y="24.002" transform="matrix(8.255609e-06 1 -1 8.255609e-06 511.9979 -0.0021)" class="st2" width="463.99" height="463.996"/>
	<g id="XMLID_108_">
		<path class="st1" d="M24.004,494c-1.591,0-3.117-0.632-4.242-1.757c-1.126-1.125-1.758-2.651-1.758-4.243L18,24.01
			c0-3.314,2.687-6,6-6L487.996,18c1.591,0,3.117,0.632,4.242,1.757c1.126,1.125,1.758,2.651,1.758,4.243L494,487.99
			c0,3.314-2.687,6-6,6L24.004,494z M30,30.01L30.004,482L482,481.99L481.996,30L30,30.01z"/>
	</g>
	<polygon class="st3" points="256.002,420.934 104.003,344.937 104,167.067 256,243.064 	"/>
	<polygon class="st5" points="256.002,420.934 408,344.933 407.998,167.063 256,243.064 	"/>
	<polygon class="st4" points="255.998,91.066 104,167.067 256,243.064 407.998,167.063 	"/>
	<rect y="232" class="st1" width="48" height="48"/>
	<rect x="232" y="464" class="st1" width="48" height="48"/>
	<rect x="464" y="464" class="st1" width="48" height="48"/>
	<rect x="464" y="232" class="st1" width="48" height="48"/>
	<rect class="st1" width="48" height="48"/>
	<rect x="232" class="st1" width="48" height="48"/>
	<path class="st7" d="M496.64,87.36c-8.483,0-15.36-6.878-15.36-15.36V30.72H440c-8.483,0-15.36-6.877-15.36-15.36S431.517,0,440,0
		h56.64C505.122,0,512,6.878,512,15.36V72C512,80.482,505.122,87.36,496.64,87.36z"/>
	<path class="st7" d="M440,87.36c-3.93,0-7.864-1.5-10.86-4.498c-6-6-6-15.724,0-21.724l56.64-56.64
		c5.992-5.996,15.728-5.996,21.72,0c6,6,6,15.724,0,21.724l-56.64,56.64C447.864,85.86,443.93,87.36,440,87.36z"/>
	<path class="st7" d="M72,512H15.36C6.878,512,0,505.122,0,496.64V440c0-8.483,6.878-15.36,15.36-15.36s15.36,6.877,15.36,15.36
		v41.28H72c8.482,0,15.36,6.878,15.36,15.36C87.36,505.122,80.482,512,72,512z"/>
	<path class="st7" d="M15.36,512c-3.93,0-7.864-1.5-10.86-4.498c-6-6-6-15.724,0-21.724l56.64-56.64
		c5.993-5.996,15.728-5.996,21.72,0c6,6,6,15.724,0,21.724l-56.64,56.64C23.224,510.5,19.29,512,15.36,512z"/>
</g>
</svg>
