<svg xmlns="http://www.w3.org/2000/svg" viewBox="0 0 64 64"><defs><style>.cls-1{fill:#50d9d7;}.cls-2{fill:#ffac00;}.cls-3{fill:#00bebd;}.cls-4{fill:#d9d9d9;}.cls-5{fill:#f3f3f3;}.cls-6{fill:none;stroke:#d9d9d9;stroke-linecap:round;stroke-linejoin:round;stroke-width:2px;}.cls-7{fill:#ea9807;}</style></defs><title>Croping</title><g id="Croping"><rect class="cls-1" x="45" y="43" width="2" height="10"/><path class="cls-1" d="M45,45v6H15a2,2,0,0,1-2-2V8a1,1,0,0,1,1-1h4a1,1,0,0,1,1,1V45Z"/><path class="cls-1" d="M57,46v4a1,1,0,0,1-1,1H45V45H56A1,1,0,0,1,57,46Z"/><path class="cls-2" d="M13,13v6H8a1,1,0,0,1-1-1V14a1,1,0,0,1,1-1Z"/><rect class="cls-3" x="43" y="45" width="10" height="6"/><path class="cls-2" d="M51,15V56a1,1,0,0,1-1,1H46a1,1,0,0,1-1-1V19H19V13H49A2,2,0,0,1,51,15Z"/><path class="cls-4" d="M7,0H2A2,2,0,0,0,0,2V7A1,1,0,0,0,2,7V2H7A1,1,0,0,0,7,0Z"/><path class="cls-4" d="M64,7V2a2,2,0,0,0-2-2H57a1,1,0,0,0,0,2h5V7A1,1,0,0,0,64,7Z"/><path class="cls-4" d="M7,64H2a2,2,0,0,1-2-2V57a1,1,0,0,1,2,0v5H7A1,1,0,0,1,7,64Z"/><path class="cls-4" d="M64,57v5a2,2,0,0,1-2,2H57a1,1,0,0,1,0-2h5V57A1,1,0,0,1,64,57Z"/><path class="cls-4" d="M35,2H29a1,1,0,0,1,0-2h6A1,1,0,0,1,35,2Z"/><path class="cls-5" d="M21,2H15a1,1,0,0,1,0-2h6A1,1,0,0,1,21,2Z"/><path class="cls-5" d="M49,2H43a1,1,0,0,1,0-2h6A1,1,0,0,1,49,2Z"/><path class="cls-4" d="M35,64H29a1,1,0,0,1,0-2h6A1,1,0,0,1,35,64Z"/><path class="cls-5" d="M21,64H15a1,1,0,0,1,0-2h6A1,1,0,0,1,21,64Z"/><path class="cls-5" d="M49,64H43a1,1,0,0,1,0-2h6A1,1,0,0,1,49,64Z"/><path class="cls-4" d="M0,35V29a1,1,0,0,1,2,0v6A1,1,0,0,1,0,35Z"/><path class="cls-5" d="M0,21V15a1,1,0,0,1,2,0v6A1,1,0,0,1,0,21Z"/><path class="cls-5" d="M0,49V43a1,1,0,0,1,2,0v6A1,1,0,0,1,0,49Z"/><path class="cls-4" d="M64,29v6a1,1,0,0,1-2,0V29A1,1,0,0,1,64,29Z"/><path class="cls-5" d="M64,43v6a1,1,0,0,1-2,0V43A1,1,0,0,1,64,43Z"/><path class="cls-5" d="M64,15v6a1,1,0,0,1-2,0V15A1,1,0,0,1,64,15Z"/><line class="cls-6" x1="43" y1="21" x2="41" y2="23"/><line class="cls-6" x1="38" y1="26" x2="36" y2="28"/><line class="cls-6" x1="33" y1="31" x2="31" y2="33"/><line class="cls-6" x1="28" y1="36" x2="26" y2="38"/><line class="cls-6" x1="23" y1="41" x2="21" y2="43"/><rect class="cls-7" x="11" y="13" width="2" height="6"/><rect class="cls-7" x="19" y="13" width="2" height="6"/></g></svg>