<svg xmlns="http://www.w3.org/2000/svg" width="128" height="128" viewBox="0 0 128 128">
  <title>Selection Tool</title>
  <path d="M122,4.25H108.467A1.749,1.749,0,0,0,106.717,6v5.017h-34.2V6a1.75,1.75,0,0,0-1.75-1.75H57.233A1.75,1.75,0,0,0,55.483,6v5.017h-34.2V6a1.749,1.749,0,0,0-1.75-1.75H6A1.749,1.749,0,0,0,4.25,6V19.533A1.749,1.749,0,0,0,6,21.283h5.017v34.2H6a1.75,1.75,0,0,0-1.75,1.75V70.767A1.75,1.75,0,0,0,6,72.517h5.017v34.2H6a1.749,1.749,0,0,0-1.75,1.75V122A1.749,1.749,0,0,0,6,123.75H19.533a1.749,1.749,0,0,0,1.75-1.75v-5.017h34.2V122a1.75,1.75,0,0,0,1.75,1.75H70.767a1.75,1.75,0,0,0,1.75-1.75v-5.017h34.2V122a1.749,1.749,0,0,0,1.75,1.75H122a1.749,1.749,0,0,0,1.75-1.75V108.467a1.749,1.749,0,0,0-1.75-1.75h-5.02v-34.2H122a1.75,1.75,0,0,0,1.75-1.75V57.233a1.75,1.75,0,0,0-1.75-1.75h-5.02v-34.2H122a1.749,1.749,0,0,0,1.75-1.75V6A1.749,1.749,0,0,0,122,4.25ZM58.983,7.75H69.017V17.783H58.983ZM7.75,7.75H17.783V17.783H7.75Zm0,51.233H17.783V69.017H7.75ZM17.783,120.25H7.75V110.217H17.783Zm51.234,0H58.983V110.217H69.017Zm51.233,0H110.217V110.217H115.2c.01,0,.02,0,.029,0s.02,0,.03,0h4.99Zm0-51.233H110.217V58.983H120.25Zm-6.77-13.534h-5.013a1.75,1.75,0,0,0-1.75,1.75V70.767a1.75,1.75,0,0,0,1.75,1.75h5.013v34.2h-5.013a1.749,1.749,0,0,0-1.75,1.75v5.016h-34.2v-5.016a1.75,1.75,0,0,0-1.75-1.75H57.233a1.75,1.75,0,0,0-1.75,1.75v5.016h-34.2v-5.016a1.749,1.749,0,0,0-1.75-1.75H14.517v-34.2h5.016a1.75,1.75,0,0,0,1.75-1.75V57.233a1.75,1.75,0,0,0-1.75-1.75H14.517v-34.2h5.016a1.749,1.749,0,0,0,1.75-1.75V14.517h34.2v5.016a1.75,1.75,0,0,0,1.75,1.75H70.767a1.75,1.75,0,0,0,1.75-1.75V14.517h34.2v5.016a1.749,1.749,0,0,0,1.75,1.75h5.013Zm6.77-37.7h-4.99c-.01,0-.02,0-.03,0s-.019,0-.029,0h-4.984V7.75H120.25Z"/>
  <path d="M99,27.25H29A1.749,1.749,0,0,0,27.25,29V99A1.749,1.749,0,0,0,29,100.75H99A1.749,1.749,0,0,0,100.75,99V29A1.749,1.749,0,0,0,99,27.25Zm-1.75,70H30.75V30.75h66.5Z"/>
</svg>
